<svg width="10" height="10" viewBox="0 0 10 10" fill="none" xmlns="http://www.w3.org/2000/svg">
<path d="M5.00002 0.416738C3.7973 0.404517 2.63893 0.870325 1.77949 1.71179C0.920057 2.55326 0.429879 3.70153 0.416687 4.90424C0.421321 5.85473 0.72708 6.77929 1.29005 7.54513C1.85301 8.31098 2.64422 8.87869 3.55002 9.16674C3.77919 9.2084 3.86252 9.0709 3.86252 8.95007C3.86252 8.82924 3.86252 8.56257 3.86252 8.18757C2.58752 8.4584 2.31669 7.58757 2.31669 7.58757C2.23181 7.3142 2.05137 7.08051 1.80835 6.92924C1.39169 6.65424 1.84169 6.6584 1.84169 6.6584C1.98571 6.67766 2.1235 6.72927 2.24473 6.80937C2.36596 6.88947 2.46749 6.99598 2.54169 7.1209C2.67099 7.34512 2.88316 7.50961 3.13253 7.57896C3.38189 7.64832 3.64852 7.617 3.87502 7.49174C3.89832 7.26356 4.00164 7.05101 4.16669 6.89174C3.15002 6.77924 2.08335 6.39591 2.08335 4.67507C2.07426 4.22619 2.24012 3.79137 2.54585 3.46257C2.40662 3.07718 2.42306 2.6527 2.59169 2.27924C2.59169 2.27924 2.97919 2.15841 3.84169 2.73757C4.59248 2.5375 5.38257 2.5375 6.13335 2.73757C7.00835 2.15841 7.38335 2.27924 7.38335 2.27924C7.55199 2.6527 7.56843 3.07718 7.42919 3.46257C7.74202 3.78534 7.91688 4.21724 7.91669 4.66674C7.91669 6.39174 6.84169 6.77091 5.83335 6.88341C5.94376 6.9906 6.02905 7.12093 6.08308 7.26502C6.13712 7.40911 6.15855 7.56338 6.14585 7.71674V8.9459C6.14585 8.9459 6.22919 9.2084 6.45835 9.16257C7.36159 8.87274 8.15013 8.30489 8.71135 7.54013C9.27258 6.77537 9.57777 5.85282 9.58335 4.90424C9.57016 3.70153 9.07998 2.55326 8.22055 1.71179C7.36111 0.870325 6.20274 0.404517 5.00002 0.416738" fill="white"/>
</svg>
